<!DOCTYPE svg PUBLIC "-//W3C//DTD SVG 20010904//EN" "http://www.w3.org/TR/2001/REC-SVG-20010904/DTD/svg10.dtd">
<svg version="1.0" xmlns="http://www.w3.org/2000/svg" width="512px" height="160px" viewBox="0 0 5120 1600" preserveAspectRatio="xMidYMid meet">
<g id="layer101" fill="#030201" stroke="none">
 <path d="M0 805 l0 -795 790 0 790 0 0 95 0 95 1770 0 1770 0 0 605 0 605 -1770 0 -1770 0 0 95 0 95 -790 0 -790 0 0 -795z"/>
 </g>
<g id="layer102" fill="#f4e118" stroke="none">
 <path d="M0 805 l0 -795 790 0 790 0 0 95 0 95 1770 0 1770 0 0 605 0 605 -1770 0 -1770 0 0 95 0 95 -790 0 -790 0 0 -795z m758 571 c17 -9 44 -32 59 -53 l28 -36 3 -269 3 -268 -66 0 -65 0 0 245 c0 232 -1 246 -20 265 -30 30 -68 25 -105 -14 l-31 -34 -52 32 c-29 17 -52 34 -52 38 0 23 77 90 119 103 54 17 136 13 179 -9z m476 13 c87 -22 146 -95 146 -179 0 -90 -41 -137 -178 -205 -105 -52 -126 -77 -98 -120 23 -35 74 -34 110 2 29 29 41 26 102 -22 l29 -23 -40 -40 c-138 -138 -368 -33 -340 155 6 40 15 55 54 93 27 25 74 56 107 69 92 38 114 57 114 96 0 28 -6 37 -30 50 -54 28 -98 18 -155 -36 l-30 -28 -52 30 c-60 34 -60 40 1 98 61 59 167 84 260 60z m866 -529 l0 -239 127 -3 c139 -3 143 -5 129 -64 l-6 -24 -179 0 c-154 0 -180 2 -185 16 -8 21 -8 539 1 547 3 4 30 7 60 7 l53 0 0 -240z m662 205 c28 -21 53 -50 73 -90 28 -54 30 -67 30 -159 0 -111 -20 -174 -72 -228 -29 -31 -118 -68 -162 -68 -86 0 -172 53 -211 131 -62 120 -39 310 47 391 47 45 90 59 175 56 67 -3 82 -7 120 -33z m478 24 c70 -15 116 -56 128 -115 15 -70 -4 -122 -56 -157 l-24 -15 21 -11 c47 -26 67 -122 36 -181 -30 -57 -82 -74 -247 -78 l-148 -4 0 279 c0 154 3 283 7 286 11 11 228 8 283 -4z m340 -114 l0 -125 115 0 115 0 0 125 0 125 55 0 55 0 0 -285 0 -285 -55 0 -55 0 0 115 0 115 -115 0 -115 0 0 -115 0 -115 -60 0 -60 0 0 278 c0 153 3 282 7 285 3 4 30 7 60 7 l53 0 0 -125z m775 106 c83 -37 124 -114 132 -242 12 -195 -77 -313 -237 -313 -151 0 -240 107 -240 290 0 180 88 284 240 284 41 0 80 -7 105 -19z m327 2 c39 -35 9 -93 -47 -93 -37 0 -57 19 -57 55 0 14 5 32 12 40 17 20 69 19 92 -2z m-1 -180 c0 -10 4 -92 8 -183 5 -91 6 -171 4 -177 -3 -8 -25 -13 -60 -13 l-56 0 6 188 c4 103 7 190 7 195 0 4 20 7 45 7 36 0 45 -4 46 -17z"/>
 <path d="M2567 990 c-48 -38 -61 -76 -61 -175 0 -103 16 -150 63 -178 56 -33 127 -12 158 46 21 41 29 168 14 224 -17 64 -48 94 -101 100 -36 4 -51 1 -73 -17z"/>
 <path d="M3070 931 l0 -81 70 0 c62 0 74 3 95 25 30 29 33 74 6 106 -16 20 -30 24 -95 27 l-76 4 0 -81z"/>
 <path d="M3070 695 l0 -75 64 0 c89 0 111 20 107 98 -1 30 -53 52 -121 52 l-50 0 0 -75z"/>
 <path d="M4201 997 c-50 -25 -65 -60 -69 -161 -5 -110 7 -155 49 -191 59 -49 144 -24 175 51 16 39 18 173 4 226 -20 71 -96 108 -159 75z"/>
 </g>
<g id="layer103" fill="#fffff6" stroke="none">
 <path d="M0 805 l0 -795 790 0 790 0 0 795 0 795 -790 0 -790 0 0 -795z m1488 3 l2 -698 -700 0 -700 0 0 693 c0 382 3 697 7 700 3 4 317 6 697 5 l691 -3 3 -697z"/>
 </g>

</svg>