<!DOCTYPE svg PUBLIC "-//W3C//DTD SVG 20010904//EN" "http://www.w3.org/TR/2001/REC-SVG-20010904/DTD/svg10.dtd">
<svg version="1.0" xmlns="http://www.w3.org/2000/svg" width="512px" height="160px" viewBox="0 0 5120 1600" preserveAspectRatio="xMidYMid meet">
<g id="layer101" fill="#53c3e1" stroke="none">
 <path d="M448 1580 c-85 -46 -131 -146 -131 -284 0 -45 3 -100 7 -123 6 -34 5 -43 -7 -43 -32 0 -162 -75 -217 -126 -72 -67 -100 -121 -100 -194 0 -110 84 -209 242 -283 l88 -42 -7 -45 c-12 -77 -7 -193 11 -255 31 -106 121 -175 228 -175 80 0 245 76 303 139 16 18 19 17 89 -33 128 -92 235 -123 331 -96 57 16 115 71 141 133 l19 47 1838 0 1837 0 0 605 0 605 -1838 0 -1839 0 -13 40 c-16 48 -70 115 -111 135 -39 21 -167 20 -221 -1 -24 -10 -80 -41 -125 -71 l-83 -54 -53 40 c-93 70 -159 95 -262 98 -74 3 -96 0 -127 -17z"/>
 </g>
<g id="layer102" fill="#effbfc" stroke="none">
 <path d="M448 1580 c-85 -46 -131 -146 -131 -284 0 -45 3 -100 7 -123 6 -34 5 -43 -7 -43 -32 0 -162 -75 -217 -126 -72 -67 -100 -121 -100 -194 0 -110 84 -209 242 -283 l88 -42 -7 -45 c-12 -77 -7 -193 11 -255 31 -106 121 -175 228 -175 80 0 245 76 303 139 16 18 19 17 89 -33 90 -65 163 -97 237 -103 106 -10 181 33 230 132 26 54 30 73 32 156 1 52 -2 115 -6 142 l-8 47 38 16 c136 55 232 129 272 209 20 39 23 57 18 106 -10 113 -87 196 -243 264 l-77 33 -1 154 c-2 168 -9 197 -67 263 -47 53 -77 65 -163 65 -92 0 -134 -15 -243 -87 l-83 -54 -53 40 c-93 70 -159 95 -262 98 -74 3 -96 0 -127 -17z m193 -86 c65 -19 126 -54 197 -112 l53 -43 51 45 c28 25 85 62 126 83 61 31 85 38 133 38 72 0 104 -21 139 -91 21 -42 25 -63 25 -149 0 -55 -4 -121 -8 -148 -6 -36 -5 -48 5 -52 139 -48 228 -100 273 -159 32 -43 43 -111 25 -156 -26 -64 -181 -171 -283 -196 l-29 -7 9 -61 c23 -173 2 -288 -63 -346 -29 -25 -43 -30 -84 -30 -72 0 -152 34 -244 104 l-81 62 -60 -48 c-95 -77 -176 -113 -256 -113 -58 0 -71 3 -94 25 -60 56 -83 156 -65 285 6 44 12 88 13 98 1 14 -15 25 -68 46 -143 56 -237 133 -251 206 -21 112 69 200 299 294 21 8 27 16 22 28 -13 34 -25 169 -19 213 22 170 93 226 235 184z"/>
 <path d="M518 1421 c-47 -37 -60 -135 -37 -269 l11 -64 32 6 c17 4 65 11 106 17 41 6 78 14 82 17 22 23 128 158 128 164 0 10 -119 97 -163 119 -21 11 -59 23 -85 26 -38 4 -52 1 -74 -16z"/>
 <path d="M1112 1415 c-58 -27 -172 -110 -172 -126 0 -5 22 -37 50 -70 27 -33 54 -68 59 -78 8 -13 36 -22 117 -35 59 -10 110 -14 115 -9 15 16 29 159 19 216 -21 129 -72 156 -188 102z"/>
 <path d="M847 1196 c-55 -66 -54 -68 38 -69 44 0 82 3 83 7 4 8 -69 105 -78 106 -3 0 -22 -20 -43 -44z"/>
 <path d="M692 978 c-28 -46 -60 -104 -72 -129 l-22 -45 38 -70 c21 -38 52 -92 70 -120 30 -47 37 -52 80 -58 58 -8 182 -8 221 0 23 5 38 21 75 82 26 43 57 99 70 125 l23 49 -39 71 c-21 40 -54 96 -72 125 l-34 52 -144 0 -145 0 -49 -82z m276 -57 c43 -30 65 -84 57 -135 -11 -73 -63 -116 -142 -116 -44 0 -58 5 -87 30 -35 31 -51 72 -47 124 6 101 135 158 219 97z"/>
 <path d="M572 1038 l-54 -10 7 -36 c4 -20 15 -52 25 -71 l18 -35 25 49 c15 28 36 65 48 83 24 37 24 37 -69 20z"/>
 <path d="M1120 1046 c0 -10 84 -156 90 -156 7 0 50 107 50 124 0 9 -17 16 -47 21 -27 3 -58 9 -70 12 -13 3 -23 2 -23 -1z"/>
 <path d="M370 983 c-125 -50 -200 -118 -200 -180 0 -48 59 -105 158 -150 117 -54 116 -55 161 58 l38 97 -33 83 c-17 46 -35 92 -38 102 -7 22 -8 22 -86 -10z"/>
 <path d="M1287 904 l-39 -95 38 -100 c44 -116 35 -114 169 -49 152 73 186 142 110 221 -41 41 -185 119 -221 119 -15 0 -28 -22 -57 -96z"/>
 <path d="M541 675 c-26 -68 -26 -82 -3 -89 36 -10 112 -18 112 -11 0 8 -53 105 -76 138 -11 17 -14 12 -33 -38z"/>
 <path d="M1161 649 c-23 -40 -39 -74 -36 -77 5 -5 124 14 131 21 6 6 -39 127 -47 127 -4 0 -26 -32 -48 -71z"/>
 <path d="M488 502 c-6 -15 -11 -74 -12 -132 -1 -120 12 -163 56 -186 26 -13 35 -13 82 0 50 15 139 67 200 118 l29 24 -68 85 -67 84 -77 12 c-42 6 -89 14 -104 17 -23 5 -29 1 -39 -22z"/>
 <path d="M1190 515 c-36 -7 -78 -14 -95 -14 -24 -2 -39 -14 -75 -62 -25 -33 -54 -72 -65 -86 l-20 -25 50 -44 c56 -50 152 -102 205 -110 48 -8 83 21 100 81 13 46 9 220 -6 258 -7 19 -4 19 -94 2z"/>
 <path d="M800 483 c0 -5 20 -30 45 -58 l44 -50 26 30 c14 17 34 42 46 58 l20 27 -90 0 c-50 0 -91 -3 -91 -7z"/>
 <path d="M2522 1097 c-61 -17 -120 -70 -150 -135 -20 -44 -25 -70 -25 -141 0 -47 6 -104 13 -126 49 -151 201 -216 341 -144 136 69 174 322 70 466 -51 70 -159 105 -249 80z m145 -121 c12 -15 27 -45 34 -69 15 -56 7 -183 -14 -224 -32 -61 -111 -81 -162 -41 -41 32 -55 76 -56 176 -1 99 11 135 58 172 39 30 108 23 140 -14z"/>
 <path d="M4148 1096 c-121 -33 -178 -125 -178 -287 0 -199 126 -318 297 -280 75 17 144 84 167 162 20 66 21 180 1 245 -36 123 -163 194 -287 160z m138 -117 c31 -29 44 -77 44 -164 0 -136 -34 -190 -120 -190 -85 0 -120 54 -120 183 0 111 23 171 75 193 32 14 95 3 121 -22z"/>
 <path d="M4554 1085 c-46 -46 -8 -103 63 -96 20 2 43 31 43 56 0 24 -42 65 -67 65 -8 0 -25 -11 -39 -25z"/>
 <path d="M1944 1087 c-3 -8 -4 -135 -2 -283 l3 -269 185 0 185 0 0 40 0 40 -127 3 -128 3 0 239 0 240 -55 0 c-37 0 -57 -4 -61 -13z"/>
 <path d="M2917 1093 c-4 -3 -7 -132 -7 -286 l0 -279 148 4 c129 3 152 6 189 26 24 12 49 35 58 52 31 59 11 155 -36 181 -21 11 -20 11 9 29 35 22 47 40 56 91 14 76 -36 150 -118 174 -51 15 -286 22 -299 8z m242 -89 c58 -12 79 -87 36 -129 -21 -22 -33 -25 -95 -25 l-70 0 0 80 0 80 49 0 c27 0 63 -3 80 -6z m6 -248 c33 -14 35 -18 35 -60 0 -60 -23 -76 -107 -76 l-63 0 0 75 0 75 50 0 c28 0 66 -7 85 -14z"/>
 <path d="M3420 815 l0 -285 60 0 60 0 0 115 0 115 115 0 115 0 0 -115 0 -115 55 0 c48 0 55 3 60 23 3 12 4 139 3 282 l-3 260 -57 3 -58 3 0 -126 0 -125 -115 0 -115 0 0 125 0 125 -60 0 -60 0 0 -285z"/>
 <path d="M4546 843 c-3 -42 -6 -130 -6 -195 l0 -119 58 3 57 3 -3 170 c-5 219 -3 215 -57 215 l-42 0 -7 -77z"/>
 </g>

</svg>